<svg viewBox="0 0 584 90" fill="none" xmlns="http://www.w3.org/2000/svg">
<path d="M54.4659 56.5145C54.6977 55.7064 53.4809 54.5521 53.3071 53.2246C53.1332 52.0125 51.7426 50.9159 50.7576 49.9347C49.367 48.6073 47.9764 47.1643 46.354 46.2409C44.2101 45.0865 41.8925 44.1631 39.5748 43.4705C37.1991 42.7779 34.7656 42.4893 32.332 42.143C30.8255 41.9121 29.319 41.739 27.8125 41.8544C26.248 41.9698 24.6836 42.4316 23.1192 42.6047C22.0762 42.7201 21.0332 42.6047 20.1062 42.6047C20.222 41.5658 20.28 40.8732 20.3959 40.1806C21.0912 36.9485 21.7285 33.7163 22.4818 30.5419C22.7136 29.6184 22.9453 28.7527 23.235 27.8292C24.6836 25.0011 27.6387 23.789 30.9414 23.0964C33.3749 22.577 35.8665 22.1153 38.358 21.5958C38.5897 21.5958 38.8215 21.5958 39.0533 21.5958C40.2701 21.3649 41.4289 21.0764 42.6457 20.7301C44.6157 20.3838 47.9184 20.326 49.5408 18.8254C50.352 18.5368 51.1632 18.1328 51.6847 17.5556C52.2062 16.9785 52.4959 16.459 52.5538 15.9973C52.7856 15.4778 52.7276 14.9007 52.2641 14.3812C52.0903 14.2081 51.9744 14.0349 51.8006 13.8618C51.8006 13.4577 51.5688 13.0537 51.0473 12.7651C50.9314 12.7074 50.7576 12.592 50.6417 12.5343C49.4829 11.8994 48.2661 11.4954 47.0493 11.3799C46.2381 11.2645 45.4269 11.3222 44.6157 11.4377C38.8215 11.2645 32.8535 13.1692 27.3489 14.4389C24.1042 15.1892 19.8165 15.5355 16.9193 17.3248C15.7605 18.0174 14.9493 19.2294 14.3119 20.4992C13.9063 21.0186 13.6166 21.5958 13.3849 22.2307C13.3849 22.2307 13.3849 22.2307 13.3269 22.3461C11.9363 24.3085 11.4148 27.1366 10.6036 29.3876C9.56067 32.2734 8.51771 35.217 7.47475 38.1028C6.66356 40.3538 5.79443 42.6047 5.91031 45.0288C5.96825 46.7603 6.48973 48.4341 7.1271 50.1079C7.24298 50.8005 7.47475 51.3777 7.8224 51.9548C7.8224 52.128 7.93829 52.3011 7.99623 52.4743C8.05417 52.7629 8.11212 53.1092 8.34389 53.2246C8.86537 53.5132 9.50273 53.744 10.0822 53.9749C10.0822 53.9172 10.0822 53.8595 10.1401 53.8018C10.4298 53.9172 10.6616 53.9749 10.9513 54.0903C12.6316 54.0903 14.3119 53.9749 15.9923 53.744C16.1661 53.744 16.282 53.6863 16.4558 53.6286C16.4558 53.6286 16.5137 53.6286 16.5717 53.6286C17.4408 53.5132 18.31 53.34 19.1791 53.2246C19.3529 53.2246 19.5267 53.1092 19.7006 53.0514C19.8165 53.0514 19.9903 53.0514 20.1062 53.0514C24.8574 52.2434 29.6087 51.4354 34.4758 52.8206C37.315 53.6286 40.0383 55.3024 41.371 58.0151C42.9934 61.3049 41.8924 64.9988 40.6757 68.231C40.2701 69.2699 39.4589 69.7893 38.6477 69.9625C34.9394 74.3489 28.3919 77.4656 23.8724 78.3314C20.1641 79.024 16.224 78.3314 13.4428 75.8496C11.2989 75.0992 9.90833 73.5409 9.21302 71.1745C8.69154 69.5007 7.64858 65.5183 5.27295 65.4028C4.5197 65.98 3.82439 66.4995 3.12908 67.1343C2.89731 67.3652 2.66554 67.5384 2.43378 67.7692C1.85435 68.9813 1.44876 70.3665 1.15905 71.2322C0.405797 73.5409 -0.173626 76.0227 0.347854 78.4468C1.5067 83.9876 7.1271 87.2198 12.1101 88.8936C13.8484 89.4707 15.5867 89.817 17.267 89.9902C17.3249 89.9902 17.4408 89.9902 17.4988 89.9902C18.1941 89.9902 18.8894 89.9902 19.5847 89.9902C19.5847 89.9902 19.5847 90.0479 19.5847 90.1056C19.7585 90.1056 19.9323 90.1056 20.0482 90.1056L21.0912 89.1821C21.0912 89.2976 21.2071 89.4707 21.265 89.5862C21.5547 89.5284 21.8444 89.413 22.1341 89.3553C23.0033 89.4707 23.8724 89.4707 24.8574 89.2399C25.9583 89.009 27.0592 88.6627 28.1601 88.201C28.5657 88.0855 28.9134 87.9701 29.319 87.8547C31.2311 87.2775 33.317 87.1043 35.1712 86.2963C39.9804 84.2762 44.7316 82.083 48.0923 77.6965C48.8455 77.0039 49.4829 76.2536 49.9464 75.3301C50.1782 74.9261 50.352 74.4644 50.5258 74.0026C50.6417 73.9449 50.6997 73.8295 50.8156 73.7718C50.8156 73.6563 50.8156 73.4832 50.8156 73.31C50.9314 72.8483 51.1053 72.4443 51.2212 71.9825C52.2062 71.4054 52.0323 70.251 52.4959 69.443C52.5538 69.2699 52.6697 69.039 52.7856 68.9813C54.0603 68.5773 54.0024 67.8847 53.7706 67.1343C53.8865 66.8458 54.0603 66.6149 54.1762 66.3263C55.2192 63.6136 54.9874 60.7855 54.4659 57.9574C54.4659 57.4956 54.5818 57.0339 54.6977 56.5722L54.4659 56.5145Z" fill="white"/>
<path d="M75.4407 37.5257C71.8482 40.2961 70.9212 44.3362 68.5455 47.7992C67.2708 49.4153 68.7773 51.724 66.9811 53.3978C63.7363 58.7654 64.7793 65.8646 67.7343 70.8282C73.8183 75.6764 82.5096 73.3101 89.6945 72.098C94.5037 70.0202 97.5746 65.8069 102.094 63.0942C123.996 41.5658 97.9802 18.5368 75.4407 37.4679V37.5257ZM95.8943 54.0904C92.3019 60.0929 88.9412 62.6325 82.7993 66.0955C65.3008 68.8659 78.4537 39.488 90.1 39.488C92.6495 38.68 92.0701 41.4504 93.6925 42.0853C99.0232 43.0088 100.414 51.6663 95.8943 54.1481V54.0904Z" fill="white"/>
<path d="M488.453 43.5859C486.367 43.9899 484.281 44.5094 482.195 44.798C481.732 44.8557 480.921 44.394 480.689 43.9322C479.646 42.0276 478.545 40.4115 476.285 39.9498C474.199 39.488 472.635 39.6612 471.128 41.5658C468.579 44.798 466.609 48.3187 465.508 52.3589C465.16 53.6864 465.392 55.187 465.16 56.5722C464.581 59.8621 464.349 62.921 466.145 66.2109C467.594 68.9236 469.622 69.7316 471.94 70.3665C474.779 71.1168 477.328 69.7893 479.82 68.7504C481.5 68.0578 483.18 67.1921 484.687 66.1532C486.02 65.2297 487.179 64.0177 488.395 62.921C490.829 60.7278 493.726 58.9963 495.059 55.591C495.522 54.4367 496.507 53.5132 496.739 52.3012C497.202 50.3388 497.26 48.3187 497.492 46.2409C496.913 45.7792 496.449 45.3751 495.928 44.9134C493.61 42.951 491.061 43.0088 488.453 43.5282V43.5859Z" fill="#E32113"/>
<path d="M454.847 9.18673C437.348 1.39496 419.56 18.1905 407.624 30.3688C394.587 41.2195 383.462 58.9386 391.863 74.753C403.104 84.8534 419.154 83.9299 432.075 77.2348C438.101 75.6764 442.389 71.29 447.14 67.5961C449.168 64.0754 448.473 59.2849 450.211 55.3024C453.224 45.4906 450.501 40.9887 445.286 39.7766C444.765 39.7766 444.301 39.7766 443.78 39.7766C440.071 40.0652 436.479 41.2772 433.002 42.6047C430.916 43.9899 428.657 45.202 426.629 46.5872C424.543 48.0301 422.515 49.7616 420.835 51.6663C419.618 53.0515 417.879 55.3601 418.922 57.1494C418.922 57.1494 418.98 57.1494 419.038 57.2071C422.515 58.8231 426.803 55.3601 429.7 53.8018C431.612 52.7629 433.524 51.6663 435.552 50.8005C436.479 50.3965 437.406 49.9925 438.333 49.4153C439.028 48.9536 439.724 48.4918 440.535 48.3187C441.23 48.1455 441.752 48.665 441.81 49.2422C441.868 49.4153 441.926 49.6462 441.868 49.877C441.462 51.6085 441.52 53.5132 441.172 55.2447C441.172 58.3614 437.985 60.9009 435.726 62.5747C433.408 64.2485 430.859 65.8069 428.077 66.9612C417.532 72.6752 402.003 76.3113 400.265 63.5559C400.555 46.8758 425.064 21.5381 440.535 15.247C452.065 11.9571 445.054 25.9246 448.357 31.1768C460.989 35.621 462.959 14.3812 454.789 9.18673H454.847Z" fill="white"/>
<path d="M525.015 4.51172C523.566 4.39629 522.06 3.7614 520.495 4.68487C519.279 5.37747 518.178 6.35866 518.004 7.74386C517.772 9.30221 517.54 10.9183 517.251 12.4766C516.787 14.6699 516.266 16.8054 515.802 18.9986C515.628 19.7489 515.744 20.6147 515.686 21.365C515.686 21.7113 515.628 22.0576 515.57 22.4039C515.57 24.1931 514.411 25.8092 514.759 27.7716C514.991 29.2722 514.469 30.8883 514.122 32.3889C513.89 33.6587 513.426 34.9285 513.195 36.2559C512.905 37.8143 512.847 39.3727 512.557 40.8733C512.268 42.2585 511.688 43.6437 511.398 45.0289C510.819 48.0879 510.298 51.1469 509.776 54.1481C509.602 55.187 509.544 56.2837 509.197 57.2648C508.617 58.7078 508.038 60.093 508.501 61.709C508.501 61.8245 508.501 61.9399 508.501 62.1131C508.212 64.364 507.864 66.615 507.69 68.9236C507.516 71.2323 507.516 73.541 507.4 75.7919C507.227 77.9275 508.791 79.8321 510.587 79.6012C511.109 79.5435 511.746 79.4858 512.21 79.6012C513.658 80.1207 514.701 79.5435 515.454 78.3892C516.266 77.2348 517.019 76.1382 516.497 74.4644C515.976 72.7329 515.744 70.886 515.686 69.0968C515.686 67.1344 515.976 65.1143 516.15 63.0942C516.266 61.8822 516.381 60.6701 516.613 59.5158C517.135 57.0917 518.12 54.7253 518.294 52.3012C518.409 50.2811 518.873 48.3765 519.279 46.4718C519.626 44.798 519.742 43.0665 520.09 41.4505C520.437 39.719 521.017 37.9874 521.422 36.2559C521.596 35.5056 521.422 34.7553 521.596 34.005C521.944 32.3889 522.407 30.8306 522.697 29.2145C523.161 26.6172 523.392 24.02 523.856 21.4805C524.262 19.2295 525.073 17.0363 525.131 14.843C525.189 12.8229 526.058 11.2646 526.753 9.5908C527.333 8.26331 527.043 7.10898 526.753 5.95464C526.579 5.31976 525.594 4.51172 524.957 4.454L525.015 4.51172Z" fill="white"/>
<path d="M557.057 7.80156C550.162 17.094 549.524 28.3487 546.801 38.9686C545.353 45.7792 524.493 47.5684 535.908 55.4179C543.151 57.4957 544.02 51.5509 542.745 61.9976C542.166 68.6928 532.779 94.4921 547.844 84.334C550.509 79.6012 549.467 74.5221 550.394 69.5008C551.842 60.6701 550.278 47.453 561.403 44.4517C564.647 42.8356 567.95 41.6813 569.167 37.9297C569.167 24.424 553.87 38.3914 557.173 31.0614C560.591 25.2897 560.476 9.30219 570.036 10.3411C574.324 12.4189 573.686 20.0952 579.481 19.8066C593.792 15.8819 570.905 -13.7268 557.057 7.80156Z" fill="white"/>
<path d="M174.87 57.438C173.305 55.3602 172.146 52.9938 170.814 50.7428C170.756 50.6274 170.814 50.4543 170.756 50.3388C170.466 49.8194 170.292 49.1845 169.829 48.8959C168.264 47.9147 166.642 47.049 164.73 47.9147C164.498 48.0302 164.208 48.0302 163.977 48.0879C161.717 48.2033 159.457 48.3765 157.197 48.4342C154.532 48.4919 151.983 49.2422 149.491 50.108C147.811 50.6851 146.014 51.0314 144.334 51.7817C142.828 52.4166 141.495 53.5133 139.931 54.2636C137.439 55.4179 136.512 57.438 136.744 59.8044C136.57 61.0741 136.975 62.2285 138.598 62.8057C138.946 62.9211 139.119 63.3828 139.409 63.6137C139.931 64.0754 140.394 64.5949 140.974 64.8835C142.654 65.7492 144.508 65.7492 146.362 65.5183C147.347 65.4029 148.332 65.4606 149.317 65.2875C150.013 65.172 150.65 64.8835 151.287 64.6526C152.968 64.1331 154.648 63.7291 156.328 63.2097C158.124 62.5748 159.921 61.7667 161.717 61.0741C162.238 60.901 162.818 60.7856 163.281 60.5547C164.324 60.093 165.947 60.3815 166.294 61.2473C166.99 62.8634 167.685 64.5372 168.322 66.2109C169.481 69.1545 171.857 69.7894 174.174 67.6539C174.348 67.4807 174.638 67.3653 174.87 67.3076C175.971 66.9035 177.593 64.5372 177.303 63.3828C176.782 61.2473 176.144 59.2272 174.754 57.438H174.87Z" fill="white"/>
<path d="M247.587 50.9159C249.325 50.3388 251.122 49.877 252.86 49.2999C253.034 49.2421 253.208 49.069 253.381 48.9536C253.555 48.8381 253.787 48.7227 253.961 48.6073C253.961 48.665 254.019 48.7804 254.077 48.8381C254.366 48.7227 254.714 48.665 254.888 48.4918C255.351 47.9724 255.757 47.3952 256.221 46.8758C257.206 45.6637 257.032 43.7013 255.757 42.7779C254.366 41.7967 252.976 40.9309 251.411 42.4893C251.295 42.6047 251.064 42.6047 250.89 42.6047C249.21 43.1242 247.529 43.5859 245.907 44.1054C244.574 44.5671 243.241 45.0288 241.967 45.606C240.924 46.0677 239.823 46.4717 238.896 47.1643C237.331 48.3187 236.636 50.1079 236.057 51.9548C235.941 52.3011 235.999 52.7629 236.057 53.1092C236.81 55.187 237.969 56.9762 239.765 58.4191C241.503 59.8043 242.952 61.4781 244.632 62.9787C245.791 64.0176 245.791 63.9599 244.98 65.2874C244.922 65.4028 244.864 65.576 244.806 65.6914C244.458 66.4417 244.284 67.3075 243.763 67.8847C243.126 68.635 243.126 69.2121 243.589 69.9625C243.879 70.4242 244.111 70.9436 244.458 71.4054C244.574 71.5785 244.922 71.6363 245.154 71.6363C245.617 71.7517 246.139 71.7517 246.66 71.8671C246.95 71.8671 247.297 72.1557 247.471 72.0403C248.572 71.4631 249.673 70.9436 250.716 70.251C251.353 69.847 251.817 69.1544 252.396 68.635C253.497 67.6538 254.598 66.788 255.699 65.8069C255.989 65.5183 256.221 65.1143 256.336 64.7102C256.452 64.3639 256.336 63.9022 256.278 63.5559C256.105 63.0365 255.757 62.5747 255.525 62.0553C255.351 61.7667 255.293 61.3627 255.12 61.1895C254.193 60.4969 253.266 59.862 252.28 59.2271C251.122 58.4191 249.847 57.6688 248.746 56.7453C247.471 55.6487 246.37 54.3789 245.269 53.1092C245.038 52.8783 245.038 52.0703 245.269 51.8971C245.965 51.4354 246.718 51.0314 247.529 50.8005L247.587 50.9159Z" fill="white"/>
<path d="M220.47 46.9335C220.239 45.202 219.196 43.8168 217.399 43.4128C216.53 43.2397 215.603 43.2397 214.792 43.4128C214.155 43.586 213.517 43.8745 212.822 43.9323C212.416 44.1631 212.011 44.394 211.663 44.6826C211.026 45.1443 210.33 45.4906 209.751 46.0101C209.461 46.2986 209.056 46.4718 208.824 46.8181C208.65 46.9912 208.418 47.1644 208.244 47.2798C207.433 47.7416 206.796 48.3764 206.159 49.069C205.695 49.5885 205.231 50.0502 204.71 50.5697C204.71 50.5697 204.594 50.6851 204.536 50.6851C204.131 50.8583 203.957 51.2046 203.725 51.4931C203.551 51.724 203.319 52.0126 203.088 52.2435C203.088 52.2435 202.972 52.2435 202.914 52.2435C202.914 52.128 202.914 52.0703 202.914 52.0126C203.261 50.9737 203.551 49.9348 203.783 48.8382C203.957 48.0301 204.131 47.1644 204.246 46.3564C204.304 45.7792 204.42 45.1443 204.246 44.5671C204.073 43.9323 203.957 43.1819 203.146 43.0088C203.088 43.0088 203.03 42.9511 202.972 42.8934C202.74 42.6048 202.392 42.547 202.045 42.4893C201.639 42.4316 201.176 42.3739 200.77 42.3739C200.596 42.3739 200.422 42.3739 200.248 42.4893C199.669 42.7202 199.148 42.9511 198.626 43.2397C198.105 43.5282 197.757 43.99 197.351 44.3363C197.293 44.3363 197.235 44.5094 197.235 44.5671C197.177 44.8557 196.946 45.0866 196.714 45.2597C195.961 45.8946 195.497 46.7604 195.15 47.6261C195.034 47.9724 194.918 48.3187 194.802 48.665C194.686 48.8959 194.512 49.069 194.454 49.2999C194.222 49.7616 194.049 50.2811 193.875 50.7428C193.701 51.1469 193.527 51.6086 193.411 52.0126C193.295 52.5321 193.064 53.0515 192.89 53.571C192.774 53.8595 192.658 54.1481 192.6 54.4944C192.542 54.9562 192.368 55.4179 192.194 55.8796C192.137 56.1105 191.963 56.2836 191.963 56.5145C191.789 57.1494 191.673 57.7843 191.267 58.3037C191.152 58.9386 190.862 59.5735 190.804 60.2084C190.804 60.497 190.688 60.8433 190.572 61.1319C190.398 61.709 190.166 62.2285 189.993 62.8056C189.993 62.8634 189.993 62.9788 189.993 63.0942C189.993 63.3251 189.877 63.556 189.819 63.7291C189.645 64.4794 189.297 65.172 189.239 65.9223C189.239 66.2109 189.124 66.5572 189.066 66.8458C188.892 67.6538 188.486 68.4042 188.428 69.2122C188.428 69.5008 188.312 69.7894 188.196 70.0779C188.023 70.5974 188.023 71.2323 187.733 71.694C187.733 71.694 187.733 71.694 187.733 71.7517C187.675 72.3289 187.675 72.9061 187.733 73.4832C187.733 73.5987 187.791 73.7141 187.791 73.8295C187.791 74.8107 188.834 75.4456 189.645 75.7919C190.63 76.2536 191.731 76.4845 192.774 76.3114C193.006 76.3114 193.237 76.2536 193.469 76.1382C193.585 75.9073 193.759 75.7342 194.107 75.6765C194.222 75.6765 194.338 75.6188 194.396 75.5033C194.57 75.3302 194.802 75.2725 194.976 75.157C195.207 75.0416 195.381 74.9839 195.555 74.8107C195.961 74.5221 196.424 74.1758 196.83 73.8873C196.946 73.8295 197.004 73.6564 197.12 73.5987C197.351 73.3101 197.583 72.9638 197.873 72.6752C198.047 72.3866 198.278 72.0403 198.452 71.7517C198.51 71.5209 198.626 71.29 198.8 71.1168C198.8 71.1168 198.8 71.1168 198.8 71.0591C199.032 70.1357 199.669 69.4431 200.133 68.5773C200.19 68.4042 200.306 68.2887 200.364 68.1156C200.364 68.1156 200.364 68.0001 200.422 67.9424C200.48 67.7693 200.596 67.6538 200.654 67.5384C200.944 67.019 201.233 66.4995 201.523 65.9801C201.523 65.9801 201.523 65.9801 201.523 65.9223C201.523 65.9223 201.523 65.9223 201.523 65.8646C201.755 65.4029 201.929 64.9989 202.161 64.5371C202.856 63.0365 203.551 61.5359 204.478 60.1507C205.985 57.8997 207.781 55.8219 209.693 53.9173C210.62 52.9938 212.88 50.7428 214.213 52.2435C215.082 53.1669 214.676 54.783 214.27 55.8219C213.923 56.7454 213.865 57.6688 213.633 58.5923C213.401 59.5158 212.996 60.3815 212.648 61.2473C212.416 63.556 210.678 65.8646 211.605 68.1733C211.779 68.5773 212.069 68.9236 212.474 69.1545C212.822 69.3276 213.112 69.4431 213.459 69.5585C214.213 69.7316 215.082 69.6739 215.661 69.3276C216.936 68.635 217.399 66.9612 217.747 65.6915C218.211 64.0177 218.558 62.2862 219.022 60.6124C219.138 60.2084 219.254 59.7466 219.369 59.3426C219.369 59.3426 219.369 59.3426 219.369 59.2849C219.543 58.4769 219.601 57.7266 219.775 56.9185C219.891 56.0528 220.065 55.187 220.181 54.3213C220.296 53.4555 220.412 52.5898 220.47 51.724C220.47 51.6663 220.47 51.6086 220.47 51.5509C220.47 49.9348 220.354 48.261 220.181 46.6449L220.47 46.9335Z" fill="white"/>
<path d="M316.596 70.3666C316.944 69.0968 317.234 67.8847 317.465 66.5573C318.103 62.9788 318.624 59.2849 319.088 55.6488C318.914 55.0716 318.74 54.4367 318.566 53.8596C318.566 53.7441 318.566 53.571 318.566 53.4556C318.393 52.8784 318.335 52.1858 317.987 51.8395C316.828 50.6851 315.669 49.5885 313.989 50.2811C313.757 50.3388 313.583 50.3966 313.352 50.3966C311.497 50.3388 309.643 50.2811 307.789 50.108C305.587 49.9348 303.443 50.4543 301.3 51.1469C299.851 51.6086 298.345 51.8395 296.896 52.4167C295.563 52.9938 294.347 53.975 293.014 54.6099C290.87 55.5911 289.827 57.6689 289.711 60.2084C289.421 61.5359 289.595 62.8057 290.87 63.556C291.102 63.7291 291.218 64.1909 291.449 64.4795C291.797 64.9989 292.145 65.6338 292.608 65.9801C293.883 67.019 295.389 67.2499 296.896 67.1921C297.707 67.1921 298.518 67.3076 299.33 67.2499C299.909 67.2499 300.43 66.9036 301.01 66.7881C302.458 66.4418 303.849 66.1532 305.298 65.6915C306.862 65.1721 308.369 64.5372 309.933 63.96C310.397 63.7869 310.86 63.7869 311.266 63.556C312.193 63.152 313.467 63.6714 313.641 64.5949C313.815 65.5761 314.047 66.615 314.221 67.5962C315.264 68.0002 316.075 68.9814 316.596 70.2511V70.3666Z" fill="white"/>
<path d="M316.423 70.8859C317.002 70.7705 317.64 70.6551 318.219 70.6551C319.552 70.7128 320.479 70.4242 321.174 69.847C321.232 69.6739 321.348 69.443 321.406 69.2699C322.275 66.788 320.247 64.4794 319.899 61.9975C319.204 57.4379 321.116 52.5897 321.348 48.0301C321.58 43.0664 321.58 37.9874 322.97 33.0814C323.202 32.2157 323.492 31.4077 323.781 30.5419C323.781 30.1956 323.839 29.7916 323.897 29.4453C324.071 28.4064 324.593 27.0212 324.882 25.5783C324.882 25.2897 324.882 24.9434 324.882 24.6548C324.766 23.6736 324.245 22.9233 323.723 22.1153C323.434 22.1153 323.202 22.0575 322.97 22.1153C321.985 22.2307 321 22.173 320.015 22.3461C319.957 22.3461 319.841 22.4038 319.783 22.4616C319.552 22.577 319.262 22.6347 319.088 22.7501C318.335 26.6172 316.655 30.3687 316.307 34.2358C315.959 38.2759 315.785 42.0275 313.931 45.7791C313.931 46.01 313.931 46.2986 313.873 46.5294C313.757 47.4529 313.294 48.3764 313.12 49.2999C312.83 51.2622 312.714 53.2246 312.483 55.187C312.425 55.8796 312.483 56.5722 312.251 57.207C311.787 58.1882 311.324 59.1694 312.077 60.0929C312.077 60.1506 312.077 60.266 312.077 60.3238C312.077 61.7667 311.961 63.2096 312.077 64.6525C312.135 66.0954 312.483 67.5383 312.599 68.9813C312.714 70.3088 314.627 71.2899 316.539 70.8282L316.423 70.8859Z" fill="white"/>
<path d="M349.392 38.9109C348.638 39.3149 347.885 39.6612 347.132 40.123C345.046 41.4505 342.96 42.7202 340.932 44.1054C339.599 45.0289 338.209 45.8369 336.586 46.0678C335.775 46.1832 334.848 46.0678 334.095 46.3564C331.082 47.3376 329.923 49.1268 330.56 51.9549C330.85 53.2824 331.893 54.5522 332.704 55.7065C333.342 56.5723 333.342 57.3226 333.226 58.3615C332.936 60.2084 332.357 62.1708 333.342 64.0177C333.689 64.6526 333.631 65.4606 333.979 66.0955C334.616 67.1921 335.254 68.4042 336.239 69.2122C337.629 70.4243 339.541 70.3088 342.033 70.3666C343.482 69.9048 345.567 69.3277 347.595 68.5196C349.102 67.9425 350.608 67.1921 351.883 66.211C353.1 65.2298 354.085 63.96 354.838 62.5748C355.418 61.5359 354.606 60.4393 353.621 60.7856C352.347 61.2473 350.782 60.7856 349.739 61.9976C349.565 62.1708 349.218 62.1708 348.928 62.1708C347.19 62.2862 345.452 62.4594 343.713 62.5171C342.786 62.5171 342.265 61.9976 342.381 61.0164C342.554 59.689 342.612 58.3038 342.96 56.9763C343.424 55.0716 344.235 53.1092 345.915 52.1281C348.87 50.512 351.941 49.0691 354.664 47.049C356.229 45.8946 357.562 43.2397 356.924 41.739C355.707 38.6801 352.926 36.7754 349.392 38.7378V38.9109Z" fill="white"/>
</svg>
